<svg id="Camada_1" data-name="Camada 1" xmlns="http://www.w3.org/2000/svg" viewBox="0 0 99.69 62.28"><title>BRAZIL-FLAG</title><path d="M.31,18.41V80.68H100V18.41ZM72.26,59l-1.91,1.2L50.16,73.13l-31.42-20-1.91-1.25L13.2,49.57,50.16,26l37,23.61Z" transform="translate(-0.31 -18.41)"/><path d="M44.47,45.24c-.66-.05-1.31-.1-2-.1a10.12,10.12,0,0,0-1.26,0,36,36,0,0,0-6.14.55,13.52,13.52,0,0,0-.5,3.78A15.45,15.45,0,0,0,59.42,62,16.14,16.14,0,0,0,65,54.2a39.24,39.24,0,0,0-3.12-2.47A35.15,35.15,0,0,0,44.47,45.24Zm13.69,13,.1-.35.1.35h.36l-.31.2.1.35-.25-.25-.3.25.15-.35-.3-.2ZM50.26,52l.15-.41.1.41H51l-.35.3.1.35-.3-.25-.35.25.1-.35-.31-.3Zm-13,3.27-.31-.2-.35.2.1-.35-.3-.25h.4l.15-.41.11.41h.4l-.3.25Zm.6-8-.4-.3-.4.3.15-.45-.36-.35h.51l.1-.45.15.45h.5l-.4.35ZM39.23,54l-.4-.25-.4.25.15-.45-.36-.3h.46l.15-.46.15.46h.5l-.4.3Zm1.36-1.26-.2-.15-.2.15.1-.2-.2-.15h.2l.1-.15,0,.15h.2l-.15.15ZM42,57l-.25-.2-.25.2,0-.35-.26-.15h.31l.15-.35.1.35h.35l-.25.15Zm.5-1.61-.3-.25-.25.25.05-.35-.25-.25h.35l.1-.36.15.36h.35l-.25.25Zm2,3.12-.41-.3-.35.3.1-.5-.4-.25h.5l.15-.51.21.51h.45l-.4.25Zm.25-7.8-.35-.25-.31.25.15-.4-.35-.21h.41l.1-.45.15.45h.4l-.3.21ZM49.05,54l-.25-.2-.31.2.11-.3-.26-.2h.36l.1-.3.05.3h.4l-.3.2Zm.35.91.05-.2-.15-.11h.2l.1-.25,0,.25h.2l-.15.11v.2l-.1-.15Zm1.11,7.3-.15-.1-.15.1.1-.15L50.16,62h.15l0-.16,0,.16h.2l-.15.05Zm.25-4.84-.35-.3-.4.3.15-.45-.46-.3h.51l.2-.5.15.5h.5l-.45.3Zm1.76-3.27-.3-.3-.3.3,0-.4-.3-.25h.4l.15-.41.15.41h.4l-.35.25Zm1.66,4.78-.3-.15-.3.15.15-.3-.3-.2h.35l.1-.3.1.3h.3l-.25.2Zm.1-10.17h.36l.1-.35.1.35h.35l-.3.16.1.35-.25-.2-.3.2.15-.35Zm1.16,12-.3-.2-.35.2.15-.36-.35-.25H55l.15-.4.1.4h.4l-.3.25Zm1.31-1.51-.25-.15-.3.15.15-.31-.3-.15h.35l.1-.35.1.35H57l-.3.15Zm1.86,2.67-.25-.21-.3.21.1-.36-.25-.15h.35l.1-.3,0,.3h.41l-.31.15ZM58.51,60l.15.35-.35-.2-.35.2.15-.35-.35-.3h.4l.15-.35.1.35h.41Zm1.72-1-.31-.21-.25.21.1-.31-.3-.25h.35l.1-.3.1.3h.36l-.25.25Zm1.3-.71-.35-.25-.35.25.15-.4-.3-.25h.4l.1-.36.15.36h.41l-.36.25Zm2.07-3.12.15-.3.1.3h.3l-.3.2.15.3-.25-.15-.3.15.1-.3-.25-.2Zm-.91,1.26-.35.2.15.4-.35-.2-.35.2.15-.4-.35-.2H62l.1-.41.15.41Zm-.95-1.21.15.45-.36-.25-.4.25.1-.45-.4-.25h.5l.2-.51.11.51h.5Z" transform="translate(-0.31 -18.41)"/><path d="M41.6,36.63A15.75,15.75,0,0,0,36,43.28a36.11,36.11,0,0,1,5.28-.41h.66c1.11.05,2.21.1,3.32.26a37.22,37.22,0,0,1,18,6.84c.8.56,1.56,1.16,2.31,1.76a13.68,13.68,0,0,0,.15-2.06,15.49,15.49,0,0,0-24.11-13Zm13.59,7.91.15-.41.15.41h.41l-.31.2.1.4-.35-.25-.3.25.15-.4-.4-.2Z" transform="translate(-0.31 -18.41)"/><path d="M63.05,50.27c0-.05,0-.05-.06-.05s-.1,0-.2-.1a.71.71,0,0,0-.3-.1l-.3.15a.58.58,0,0,0,0,.41,1.6,1.6,0,0,0,.3.35s.1.15.15.2a.09.09,0,0,1,0,.15c0,.1-.2.1-.35-.05s-.2-.25-.15-.35l-.25-.2a.39.39,0,0,0,0,.4c.1.15.2.25.25.35h0a1.5,1.5,0,0,0,.4.2.34.34,0,0,0,.4-.15.55.55,0,0,0,0-.4.58.58,0,0,0-.25-.35l-.15-.15a.3.3,0,0,1,0-.2c0-.05.1-.11.15-.05a.38.38,0,0,1,.2.1l.15.15c.06.05,0,.1-.05.2l.31.2a.4.4,0,0,0,0-.4A.57.57,0,0,0,63.05,50.27Z" transform="translate(-0.31 -18.41)"/><polygon points="46.47 26.73 47.58 26.99 47.58 26.68 46.77 26.58 46.82 26.23 47.53 26.33 47.58 26.13 46.87 25.98 46.92 25.78 47.73 25.88 47.78 25.63 46.67 25.43 46.47 26.73"/><path d="M61.43,49.17c0-.05-.15-.05-.2-.1s0,0,0,0a.63.63,0,0,0-.3-.05c-.15,0-.2.05-.25.2a.3.3,0,0,0-.05.35.85.85,0,0,0,.3.3,1.09,1.09,0,0,0,.15.25s.1.1,0,.15-.15.11-.35,0-.25-.2-.15-.35l-.35-.15a.56.56,0,0,0,.05.4.47.47,0,0,0,.3.31,1,1,0,0,0,.4.2.45.45,0,0,0,.4-.2.32.32,0,0,0,0-.41,1.9,1.9,0,0,0-.25-.3,1.09,1.09,0,0,1-.25-.2.09.09,0,0,1,0-.15s.1-.1.15-.1a.38.38,0,0,1,.2.1l.15.15a.15.15,0,0,1,0,.2l.26.15a.39.39,0,0,0,0-.4A.42.42,0,0,0,61.43,49.17Z" transform="translate(-0.31 -18.41)"/><polygon points="59.76 30.26 59.91 30.01 58.81 29.4 58.05 30.71 59.26 31.32 59.41 31.11 58.45 30.56 58.6 30.26 59.36 30.66 59.46 30.41 58.76 30.01 58.91 29.75 59.76 30.26"/><polygon points="44.1 26.03 43.9 24.97 43.5 24.92 43.45 26.43 43.65 26.43 43.75 25.43 43.95 26.48 44.2 26.48 44.56 25.48 44.46 26.53 44.76 26.53 44.86 25.07 44.51 25.02 44.1 26.03"/><polygon points="41.79 25.73 42.64 25.73 42.64 25.48 41.79 25.43 41.84 25.17 42.84 25.17 42.84 24.87 41.59 24.87 41.54 26.33 42.24 26.38 42.84 26.38 42.9 26.13 41.79 26.08 41.79 25.73"/><path d="M55.8,46.65a.33.33,0,0,1,.3,0c.1,0,.15.2.2.35l.25.1a.68.68,0,0,0-.35-.65h-.05a.88.88,0,0,0-.51,0,.77.77,0,0,0-.4.4,1,1,0,0,0,0,.55.86.86,0,0,0,.35.41h0a.72.72,0,0,0,.46,0l-.05.15.15.1.25-.5,0-.16-.2-.1,0,0L56,47.1l-.1.2.2.11a.39.39,0,0,1-.41.05.37.37,0,0,1-.15-.56A.4.4,0,0,1,55.8,46.65Z" transform="translate(-0.31 -18.41)"/><path d="M64.15,52.69a1.36,1.36,0,0,0,.51-.3,1,1,0,0,0,.15-.5.67.67,0,0,0-.25-.46.53.53,0,0,0-.51-.15,1.18,1.18,0,0,0-.45.3.74.74,0,0,0-.2.51.53.53,0,0,0,.25.45A.48.48,0,0,0,64.15,52.69Zm-.35-1a.46.46,0,0,1,.3-.2c.15-.05.2,0,.25.1a.32.32,0,0,1,.16.31.73.73,0,0,1-.11.3.3.3,0,0,1-.3.15.22.22,0,0,1-.25,0,.43.43,0,0,1-.15-.3A1.43,1.43,0,0,1,63.8,51.73Z" transform="translate(-0.31 -18.41)"/><path d="M50.81,44.54l-.8-.26-.41,1.46.25,0,.16-.55.6.2c.1.05.2,0,.3-.1a.6.6,0,0,0,.25-.25.41.41,0,0,0,0-.35A.46.46,0,0,0,50.81,44.54Zm0,.5c0,.05,0,.05,0,.05a.3.3,0,0,1-.2,0l-.5-.15,0-.35.55.1.15.15A.09.09,0,0,1,50.86,45Z" transform="translate(-0.31 -18.41)"/><path d="M52.72,45.09l-.8-.3-.45,1.41.2.1.2-.51.55.16v0a.54.54,0,0,1,0,.25.67.67,0,0,0,0,.25l.2.1c.05-.05.05-.15.1-.3a.28.28,0,0,0,0-.3.56.56,0,0,0,.31-.36.42.42,0,0,0,0-.35A.52.52,0,0,0,52.72,45.09Zm0,.45a.18.18,0,0,1,0,.15h-.2l-.5-.15.05-.4.55.2a.18.18,0,0,1,.15,0A.09.09,0,0,1,52.72,45.54Z" transform="translate(-0.31 -18.41)"/><path d="M54.34,45.64a.89.89,0,0,0-.51,0,.57.57,0,0,0-.35.41,1,1,0,0,0,0,.55.49.49,0,0,0,.35.35,1.06,1.06,0,0,0,.56,0,.57.57,0,0,0,.35-.45,1,1,0,0,0,0-.55A.56.56,0,0,0,54.34,45.64Zm.15.86a.57.57,0,0,1-.26.25.33.33,0,0,1-.3,0,.5.5,0,0,1-.2-.25c0-.1,0-.2.05-.35A.5.5,0,0,1,54,46a.31.31,0,0,1,.3-.06.53.53,0,0,1,.21.26A.42.42,0,0,1,54.49,46.5Z" transform="translate(-0.31 -18.41)"/><path d="M58.36,47.91a.42.42,0,0,0,0-.35.52.52,0,0,0-.2-.26L57.41,47l-.71,1.31.25.1.25-.5.51.25a.42.42,0,0,1,0,.35c-.05.1-.05.2-.1.25l.25,0s0-.1.1-.25a.42.42,0,0,0,0-.35A.51.51,0,0,0,58.36,47.91Zm-.5,0-.55-.25.15-.31.5.21c0,.05.1.05.15.1a.3.3,0,0,1,0,.2s-.05,0-.1.1S57.91,47.91,57.86,47.86Z" transform="translate(-0.31 -18.41)"/><path d="M37.17,43.73a.66.66,0,0,0-.51-.2,1.18,1.18,0,0,0-.45.3.69.69,0,0,0-.1.55,1.16,1.16,0,0,0,.25.51.48.48,0,0,0,.5.15.72.72,0,0,0,.46-.3.81.81,0,0,0-.15-1Zm-.1.86s-.16.1-.21.15a.72.72,0,0,1-.35-.1.45.45,0,0,1-.1-.31.41.41,0,0,1,.05-.35.27.27,0,0,1,.25-.15.23.23,0,0,1,.31.1.81.81,0,0,1,.15.3A.8.8,0,0,1,37.07,44.59Z" transform="translate(-0.31 -18.41)"/><path d="M39.18,43.48a.45.45,0,0,0-.35-.15l-.86.05.1,1.51h.25l0-.61h.61a.28.28,0,0,1,.15.26.54.54,0,0,1,0,.25h.25a1,1,0,0,0,0-.31.81.81,0,0,0-.15-.3.45.45,0,0,0,.2-.4A.81.81,0,0,0,39.18,43.48Zm-.2.45s-.1,0-.15.1h-.56v-.35l.56,0a.18.18,0,0,1,.15,0c.05,0,.05,0,.05.1A.18.18,0,0,1,39,43.93Z" transform="translate(-0.31 -18.41)"/><path d="M40.59,43.28h-.65L40,44.74h.65a.61.61,0,0,0,.45-.15.66.66,0,0,0,.21-.46v-.25a1.17,1.17,0,0,0-.26-.45A.61.61,0,0,0,40.59,43.28Zm.45.8a.43.43,0,0,1-.15.3.42.42,0,0,1-.3.1h-.4v-.9h.4a.42.42,0,0,1,.3.1.23.23,0,0,1,.15.25Z" transform="translate(-0.31 -18.41)"/></svg>