<svg id="Camada_1" data-name="Camada 1" xmlns="http://www.w3.org/2000/svg" viewBox="0 0 99.69 61.23"><title>EUA-FLAG</title><path d="M47.29,19H.31V52h47V19ZM44.47,37l-1.11-.84L42.25,37l.4-1.34-1.1-.79h1.36l.45-1.29.45,1.29h1.36l-1.11.79ZM42.81,21.67l.45-1.28.4,1.28h1.41l-1.16.79.46,1.24v.1l-.1-.1-1-.74-1.06.74-.1.1,0-.1.4-1.24-1.15-.79ZM36.61,37l-1.1-.84L34.4,37l.4-1.34-1.11-.79H35.1l.41-1.29L36,34.89h1.36l-1.11.79ZM35,21.67l.45-1.28.41,1.28h1.41l-1.11.79.4,1.24v.1l-.1-.1-1-.74-1,.74-.1.1,0-.1.4-1.24-1.16-.79ZM28.81,37l-1.16-.84L26.54,37,27,35.68l-1.11-.79h1.41l.4-1.29.45,1.29h1.36l-1.1.79ZM27.1,21.67l.45-1.28.4,1.28h1.41l-1.1.79.4,1.24v.1l-.1-.1-1-.74-1.06.74-.1.1.05-.1.41-1.24-1.11-.79ZM21,37l-1.15-.84L18.69,37l.4-1.34L18,34.89h1.41l.41-1.29.45,1.29h1.36l-1.11.79ZM19.24,21.67l.46-1.28.4,1.28h1.41l-1.11.79.4,1.24v.1l-.1-.1-1-.74-1,.74-.15.1.05-.1.4-1.24-1.11-.79ZM16.78,33.16l.2.54-.81-.54-.3-.25-.3.25-.86.54.2-.54.25-.75-1.1-.79h1.36l.45-1.33.4,1.33h1.41l-1.11.79ZM13.1,37l-1.16-.84-1.1.84.4-1.34-1.11-.79h1.41l.4-1.29.46,1.29h1.41l-1.16.79ZM11.39,21.67l.45-1.28.4,1.28h1.41l-1.1.79L13,23.7v.1l-.1-.1-1-.74-1,.74-.11.1v-.1l.41-1.24L10,21.67ZM8.92,33.16l.2.54-.8-.54L8,32.91l-.31.25-.85.54.2-.54.25-.75L6.2,31.62H7.56L8,30.29l.4,1.33H9.83l-1.11.79ZM5.25,37l-1.16-.84L3,37l.45-1.34-1.15-.79H3.69l.4-1.29.45,1.29H6l-1.16.79ZM3.53,21.67,4,20.39l.45,1.28H5.8l-1.11.79L5.1,23.7v.1L5,23.7,4,23,3,23.7l-.1.1v-.1l.4-1.24-1.1-.79Zm0,6.64L4,27l.45,1.34H5.8l-.15.09-1,.7.41,1.28L4,29.59l-1.11.79.4-1.28-.95-.7-.15-.09ZM5.2,50.09l-1.11-.8L3,50.09l.4-1.29L2.28,48H3.64l.25-.75.2-.59.2.59.2.75H5.9l-1.11.79Zm-.31-7.87.1.34.31.94-1.11-.79L3,43.5l.35-.94.1-.34-1.1-.8H3.74l.45-1.33.4,1.33H6ZM7.46,25l.45-1.29L8.37,25H9.73l-1.11.79L9,27.12l-1.11-.84-1.1.84.4-1.34L6.1,25ZM9.12,46.82,8,46l-1.16.84.45-1.34L6.2,44.69H7.56L8,43.4l.4,1.29H9.83l-1.11.79Zm-.4-7.92.45,1.34L8,39.44l-1.11.8.45-1.34L6.2,38.11H7.61l.1-.25.31-1,.35,1,.1.25H9.88Zm2.67-10.59L11.84,27l.4,1.34h1.41l-.15.09-.95.7.4,1.28-1.11-.79-1.11.79.41-1.28-1-.7L10,28.31Zm1.66,21.78-1.11-.8-1.16.8.46-1.29L10.13,48h1.36l.25-.75.2-.59.2.59.21.75h1.41l-1.11.79Zm-.3-7.87.1.34.3.94L12,42.71l-1.15.79.35-.94.1-.34-1.11-.8h1.36L12,40.09l.41,1.33h1.41ZM15.32,25l.45-1.29.4,1.29h1.41l-1.11.79.41,1.34-1.11-.84-1.16.84.45-1.34L14,25ZM17,46.82,15.87,46l-1.16.84.45-1.34-1.1-.79h1.36l.45-1.29.4,1.29h1.41l-1.11.79Zm-.41-7.92L17,40.24l-1.16-.8-1.11.8.4-1.34-1.1-.79h1.41l0-.25.35-1,.35,1,.1.25h1.41Zm2.67-10.59L19.7,27l.4,1.34h1.41l-.2.09-.91.7.4,1.28-1.1-.79-1.16.79L19,29.1l-1-.7-.15-.09ZM20.9,50.09l-1.1-.8-1.16.8.45-1.29L18,48h1.36l.26-.75.2-.59.2.59.2.75h1.41l-1.11.79Zm-.3-7.87.1.34.31.94-1.11-.79-1.16.79.35-.94.1-.34L18,41.42h1.41l.46-1.33.4,1.33h1.41ZM23.17,25l.45-1.29L24,25h1.41l-1.11.79.4,1.34-1.11-.84-1.15.84.45-1.34L21.81,25Zm1.66,21.83L23.72,46l-1.15.84L23,45.48l-1.11-.79h1.36l.45-1.29.41,1.29h1.41l-1.11.79Zm-.4-7.92.45,1.34-1.16-.8-1.1.8L23,38.9l-1.11-.79h1.41l.05-.25.35-1,.36,1,.1.25h1.36Zm0-6.49.2.75.2.54-.8-.54-.31-.25-.3.25-.85.54.2-.54.25-.75-1.16-.79h1.41l.45-1.33.41,1.33h1.41Zm2.67-4.1L27.55,27l.4,1.34h1.41l-.2.09-.9.7.4,1.28-1.11-.79-1.16.79.46-1.28-1-.7-.15-.09Zm1.66,21.78-1.11-.8-1.16.8L27,48.8,25.79,48H27.2l.25-.75.2-.59.2.59.2.75h1.41l-1.1.79Zm-.35-7.87.15.34.3.94-1.11-.79-1.16.79.31-.94.15-.34-1.16-.8H27.3l.45-1.33.4,1.33h1.41ZM31,25l.46-1.29.4,1.29h1.41l-1.11.79.41,1.34-1.11-.84-1.16.84.45-1.34L29.61,25Zm1.67,21.83L31.58,46l-1.16.84.45-1.34-1.15-.79h1.41l.45-1.29.4,1.29h1.41l-1.11.79Zm-.41-7.92.46,1.34-1.16-.8-1.11.8.4-1.34-1.1-.79h1.41l.05-.25.35-1,.35,1,.1.25h1.36Zm0-6.49.2.75.21.54-.81-.54-.3-.25-.3.25-.86.54.2-.54.25-.75-1.15-.79h1.41l.45-1.33.4,1.33h1.41ZM35,28.31,35.4,27l.41,1.34h1.41l-.2.09-.91.7.4,1.28-1.11-.79-1.15.79.45-1.28-1-.7-.2-.09Zm1.66,21.78-1.1-.8-1.16.8.45-1.29L33.64,48h1.41l.25-.75.21-.59.15.59.25.75h1.41l-1.16.79Zm-.35-7.87.15.34.3.94-1.1-.79-1.16.79.3-.94.15-.34-1.16-.8h1.41l.46-1.33.4,1.33h1.41ZM38.88,25l.4-1.29h0l.4,1.29h1.41l-1.1.79.4,1.34-1.11-.84-1.16.84.46-1.34L37.47,25Zm1.66,21.83L39.43,46l-1.16.84.46-1.34-1.16-.79H39l.45-1.29.41,1.29h1.4l-1.15.79Zm-.4-7.92.4,1.34-1.11-.8-1.11.8.41-1.34-1.11-.79H39l0-.25.35-1,.35,1,.11.25h1.35Zm0-6.49.25.75.2.54-.81-.54-.3-.25-.35.25-.81.54.21-.54.25-.75-1.16-.79H39l.45-1.33.41,1.33h1.4Zm2.72-4.1L43.26,27l.4,1.34h1.41l-.2.09-1,.7.46,1.28-1.11-.79-1.16.79.45-1.28-.95-.7-.2-.09Zm1.66,21.78-1.11-.8-1.16.8.45-1.29L41.5,48h1.41l.25-.75.2-.59.15.59.25.75h1.41L44,48.8Zm-.36-7.87.16.34.3.94-1.16-.79-1.11.79.3-.94.16-.34-1.16-.8H43l.4-1.33.45,1.33h1.41Z" transform="translate(-0.31 -19)"/><rect x="46.97" width="52.71" height="4.7"/><rect x="46.97" y="9.4" width="52.71" height="4.75"/><rect x="46.97" y="18.86" width="52.71" height="4.7"/><rect x="46.97" y="28.26" width="52.71" height="4.7"/><rect y="37.72" width="99.69" height="4.7"/><rect y="47.12" width="99.69" height="4.7"/><rect y="56.53" width="99.69" height="4.7"/></svg>